<?xml version="1.0" standalone="no"?>
<!DOCTYPE svg PUBLIC "-//W3C//DTD SVG 1.1//EN" "http://www.w3.org/Graphics/SVG/1.1/DTD/svg11.dtd" >
<svg xmlns="http://www.w3.org/2000/svg" xmlns:xlink="http://www.w3.org/1999/xlink" version="1.1">
<metadata></metadata>
<defs>
<font id="biloxi_scriptregular" horiz-adv-x="1705" >
<font-face units-per-em="2048" ascent="1638" descent="-410" />
<missing-glyph horiz-adv-x="616" />
<glyph horiz-adv-x="0" />
<glyph unicode="&#xd;" horiz-adv-x="616" />
<glyph unicode=" "  horiz-adv-x="616" />
<glyph unicode="&#x09;" horiz-adv-x="616" />
<glyph unicode="&#xa0;" horiz-adv-x="616" />
<glyph unicode="!" horiz-adv-x="667" d="M292 68.5q-11 19.5 5 33.5q10 16 31.5 15.5t36.5 -15.5q16 -10 31.5 -24.5t23.5 -32.5q4 -16 -5 -24.5t-24 -2.5q-18 4 -33.5 19.5t-31.5 15.5q-23 -4 -34 15.5zM354 326q10 119 23.5 238.5t17.5 246.5q10 119 3 236.5t-17 240.5q-4 12 3 19.5t17.5 8.5t19.5 -3.5 t11 -14.5q35 -117 38 -244.5t-7 -242.5q-10 -127 -25.5 -249t-46.5 -245q-4 -16 -20.5 -12t-16.5 21z" />
<glyph unicode="&#x26;" horiz-adv-x="1079" d="M227 154q0 66 34 130t84 124.5t107.5 113.5t102.5 96q0 78 16.5 170.5t49 172t84 134t122.5 54.5q49 0 86 -32t37 -85q0 -55 -36.5 -115.5t-89 -119t-109 -113.5t-97.5 -98q2 -45 13.5 -94.5t32.5 -94.5q33 -82 80 -154.5t104 -132t122.5 -102t137.5 -67.5 q16 -8 17 -24.5t-21 -16.5q-6 0 -10 2q-92 31 -179.5 88t-158 138t-120.5 183.5t-69 223.5q-27 -25 -71.5 -69t-89 -95.5t-76 -104.5t-31.5 -98q0 -25 18.5 -39t48 -23.5t65.5 -12.5t73 -3q47 0 86 3t53 3q8 0 13.5 -8t5.5 -18q0 -6 -19.5 -13.5t-51.5 -13.5t-72 -9t-83 -3 q-41 0 -77.5 5t-66.5 19.5t-47.5 38t-17.5 60.5zM618 680q66 59 119.5 110.5t104.5 131.5q14 18 28.5 44.5t17.5 53.5t-11.5 45t-53.5 18q-31 0 -57.5 -23.5t-49 -57t-38 -70.5t-23.5 -64q-14 -47 -24 -94t-13 -94z" />
<glyph unicode="." horiz-adv-x="708" d="M279 85q0 15 9 27.5t27 12.5q8 0 15 -10q2 -5 2 -9q20 0 34.5 -6t18.5 -28q2 -12 -19.5 -27.5t-50.5 -7.5q-18 4 -27 18.5t-9 29.5z" />
<glyph unicode="0" horiz-adv-x="733" d="M153.5 146.5q2.5 62.5 22 131t47 132t49.5 104.5q39 72 81 140.5t89 129.5q29 41 71 78t75 45q14 4 20 -11t-6 -30q-31 -23 -70.5 -62.5t-56.5 -72.5q59 -31 76.5 -93.5t11.5 -133t-27.5 -138t-41.5 -112.5q-10 -20 -30 -53t-45.5 -68t-55 -64.5t-61.5 -46t-62.5 -13.5 t-57.5 38q-31 37 -28.5 99.5zM213 123q4 -23 16.5 -32t27.5 -9t30.5 6t27.5 18q41 35 70.5 80t52.5 90q20 47 40 103.5t26 114t-5.5 109.5t-49.5 93q-37 -55 -79 -124.5t-79 -146.5t-59.5 -154.5t-18.5 -147.5z" />
<glyph unicode="1" horiz-adv-x="581" d="M64.5 815q-7.5 10 1.5 21q59 76 111 147.5t120 142.5q6 8 19.5 4t13.5 -14q31 -127 35 -258t4 -264q0 -141 -3.5 -281.5t-13.5 -279.5q-2 -10 -10 -15.5t-16.5 -5.5t-15.5 5.5t-9 15.5q-4 139 -2 279.5t6 281.5q0 119 -5 225.5t-11 222.5q-61 -57 -107.5 -110t-99.5 -115 q-10 -12 -17.5 -2z" />
<glyph unicode="2" horiz-adv-x="638" d="M45 938q10 33 43 68.5t75 51t88 0t83 -84.5q18 -33 25.5 -90.5t6.5 -126t-9.5 -140t-22.5 -131.5q-20 -98 -52 -201.5t-71 -201.5q123 39 222.5 102t203.5 129q20 8 32.5 -9t2.5 -30q-106 -100 -236.5 -169.5t-265.5 -96.5q-27 -6 -39 10.5t-2 34.5q39 86 76 183.5 t63.5 199t38.5 203.5t4 199q-6 78 -29.5 116.5t-53 48t-62.5 -7t-57 -51.5q-10 -14 -21.5 -19t-22 -5t-16.5 6t-4 12z" />
<glyph unicode="3" horiz-adv-x="808" d="M19.5 891q-3.5 10 1 20.5t16.5 14.5q158 33 312.5 66.5t314.5 39.5q16 0 21 -12t1 -25q-25 -43 -58.5 -76.5t-72.5 -62.5t-80 -58.5t-78 -62.5q45 -33 111.5 -55.5t126 -50t102.5 -68.5t43 -110q-2 -33 -20.5 -63t-44 -55.5t-56 -46t-57.5 -34.5q-66 -35 -123 -59.5 t-137 -59.5q-16 -8 -32.5 -4t-28 12.5t-11.5 18.5t17 16q66 23 125 47.5t102 46.5q18 10 54 32t71 48.5t57.5 57t14.5 61.5q-18 55 -66.5 85t-108 52.5l-119 45t-95.5 63.5q-8 10 -8.5 23.5t8.5 21.5q35 31 73.5 57.5t78.5 52t78 53t69 62.5q-147 -10 -287.5 -46t-282.5 -71 q-12 -2 -20 5.5t-11.5 17.5z" />
<glyph unicode="4" horiz-adv-x="473" d="M112.5 387q-6.5 88 14 196.5t51.5 213t67 191.5t60 130q4 10 12.5 12.5t14.5 -2t10 -11.5t0 -15q-14 -35 -43 -115t-58.5 -177t-52 -199.5t-21.5 -184.5t30.5 -130t105.5 -34q14 4 25.5 -3t15.5 -19q10 -47 2 -86t-31 -80q-10 -14 -27.5 -10t-17.5 20q4 29 8.5 55.5 t4.5 59.5q-86 -6 -125 47t-45.5 141z" />
<glyph unicode="5" horiz-adv-x="645" d="M40 134q-3 9 0 18.5t13 11.5q78 16 152 46t123 91q35 45 53 126t-10 218q-16 61 -38 121.5t-44.5 120t-43 119t-34.5 118.5q-4 27 10.5 41.5t36.5 10.5q135 -4 244.5 -12t226.5 -31q20 -6 17 -30t-23 -24q-104 18 -217 20.5t-207 -7.5q20 -61 45 -124t47.5 -126.5 t38.5 -127t23 -130.5q10 -125 -23 -212t-90 -142.5t-130 -83t-142 -33.5q-10 0 -17.5 6t-10.5 15z" />
<glyph unicode="6" horiz-adv-x="716" d="M80.5 452.5q19.5 102.5 66.5 192.5q53 100 102.5 175t105 139.5t124 125t160.5 134.5q8 8 13 4t6 -13.5t-2 -19.5t-7 -16q-74 -66 -128 -114t-98 -97.5t-84 -107.5t-87 -140q-23 -41 -48.5 -96.5t-42 -115t-18.5 -120.5t23 -115q63 12 126.5 -2t92.5 -49q14 -16 12 -48 t-41 -48q-121 -25 -186.5 20t-87 127t-2 184.5zM205 219q14 -18 47 -32.5t49 -6.5q14 8 7 15.5t-25.5 12.5t-41 8t-36.5 3z" />
<glyph unicode="7" horiz-adv-x="638" d="M14 900.5q-6 19.5 6 29.5q129 70 271.5 103.5t281.5 23.5q27 0 34 -18.5t-7 -34.5q-96 -117 -169 -222.5t-125 -219t-80.5 -244t-35.5 -291.5q0 -20 -11 -25.5t-24.5 0.5t-23.5 18.5t-8 26.5q6 141 36.5 263t81 235.5t120 224.5t153.5 227q-129 -6 -241.5 -41.5 t-229.5 -72.5q-23 -2 -29 17.5z" />
<glyph unicode="8" horiz-adv-x="593" d="M64 206q6 42 19 83t31.5 80t32.5 71q37 86 76 174t66 183q-39 66 -78 134t-72 142q-4 16 3.5 34.5t25.5 18.5q37 -2 72.5 -12t64.5 -31.5t46.5 -56.5t21.5 -84q0 -29 -5.5 -58.5t-11.5 -58.5q61 -98 113 -203.5t68 -226.5q10 -88 -7.5 -166.5t-74.5 -144.5 q-47 -51 -113 -79t-131 -7q-10 0 -13 10t0 21.5t10 20.5t19 9q37 -4 75 5.5t72 33t58.5 59.5t36.5 85q23 80 6.5 157.5t-51.5 149.5q-23 45 -47.5 91t-50.5 91q-12 -41 -26.5 -79t-31.5 -74q-41 -88 -84 -181.5t-65 -195.5q-8 -51 9 -71.5t46 -24t64.5 4t64.5 11.5 q12 4 19.5 -9.5t-3.5 -19.5q-27 -12 -65.5 -24.5t-76.5 -13.5t-68.5 13.5t-42.5 57.5q-8 39 -2 81zM227 1051q16 -37 40 -74t46 -74q4 25 0 48t-14 50q-10 20 -30.5 33t-41.5 17z" />
<glyph unicode="9" horiz-adv-x="450" d="M70 991q0 10 11 19.5t21 9.5q94 -10 164 -61t125 -123q18 10 26.5 -7.5t4.5 -33.5q-35 -109 -67.5 -198t-67.5 -178t-76 -186.5t-90 -220.5q-6 -10 -15.5 -13t-17.5 0t-11 10t1 18q63 184 129.5 359t136.5 376q-57 -10 -110.5 0t-93.5 38.5t-60.5 76t-9.5 114.5zM133 948 q2 -37 20.5 -64.5t46 -44t61.5 -21.5t69 -1q-41 45 -88.5 84t-108.5 47z" />
<glyph unicode="?" horiz-adv-x="761" d="M163.5 949q4.5 65 28 128.5t60.5 120.5t80 96q29 31 73 56.5t90 32t84.5 -13t57.5 -79.5q18 -53 9 -108.5t-31.5 -109.5t-53.5 -104t-57 -91q-55 -84 -114.5 -161t-117.5 -159q61 0 126 1t126 7q20 0 22.5 -21.5t-16.5 -25.5q-78 -16 -160.5 -21t-162.5 -5 q-16 0 -27.5 16t-3.5 35q49 76 110.5 149.5t118 150.5t102.5 157.5t66 173.5q10 35 11.5 70.5t-29.5 62.5q-23 14 -45.5 16t-44 -6t-42 -23.5t-36.5 -31.5q-35 -33 -70.5 -82.5t-61.5 -104.5t-35 -112.5t11 -106.5q4 -12 -1 -23.5t-13 -16.5t-17.5 -3t-15.5 16 q-25 55 -20.5 120zM350 91q4 13 23 20q23 12 46.5 19t41.5 13q16 10 30.5 0t6.5 -26q-16 -27 -44 -40.5t-57 -27.5q-16 -8 -28.5 -2t-17.5 18.5t-1 25.5z" />
<glyph unicode="@" horiz-adv-x="1267" d="M150 207q20 100 77.5 197.5t138 171t181 116.5t205.5 37q66 -4 135 -28.5t127.5 -65.5t100.5 -98t52 -127q10 -80 -48 -131.5t-152 -45.5q-55 4 -110.5 22.5t-111 32t-109.5 12.5t-110 -38q-10 0 -25.5 8.5t-15.5 18.5q10 66 43 105.5t79 56t101.5 9.5t110.5 -38 q10 -10 2 -23.5t-28 -3.5q-35 14 -74 21.5t-74 1.5t-63.5 -28.5t-42.5 -63.5q39 10 72.5 21t74.5 7q53 -4 95 -23.5t93 -27.5q25 -6 57 -11t63.5 -5t59 8t46.5 31q18 25 20 51t-6 53t-22.5 48.5t-28.5 35.5q-92 104 -212 142t-247 -5q-104 -35 -193 -113.5t-141 -168.5 q-25 -41 -43 -87t-26 -93.5t-2 -94.5t30 -88q41 -55 104.5 -78.5t136.5 -26.5t146.5 6t135.5 19q10 0 10 -13t-10 -13q-55 -16 -121 -28.5t-132.5 -14.5t-130 13t-112.5 56q-70 49 -98.5 120t-7.5 161z" />
<glyph unicode="A" horiz-adv-x="1183" d="M-467 580q0 35 21.5 56t50.5 38q39 12 83 17q37 4 74 4h15q45 -1 90 -7t84 -14q115 -27 216 -76t200 -111q147 213 321 409t391 370q27 14 38 4t9 -27q-14 -182 -26.5 -344t-21.5 -317.5t-15 -312t-6 -328.5q0 -29 -19.5 -34t-40.5 11q-78 63 -148.5 129t-145 129.5 t-155.5 124.5t-177 117q-4 4 -36 -41t-77 -112.5l-95 -142.5t-89 -132q-2 -4 -11.5 -6t-17.5 -2t-13 4t1 14q25 41 63.5 102.5t82.5 126t85 123t70 92.5q-70 43 -129.5 76t-122 57.5t-131 40t-156.5 21.5q-25 2 -57.5 0t-63 -8t-54 -16.5t-30.5 -22.5q-8 -12 0.5 -29.5 t23.5 -34t32.5 -31t25.5 -22.5q8 -10 6 -23.5t-28 1.5q-16 8 -37 21t-38 29.5t-29.5 35t-12.5 41.5zM406 463q86 -55 168.5 -114.5t158.5 -120t141.5 -119t118.5 -109.5q2 68 6.5 162t10.5 200.5t13 221t14 224.5t15.5 207t16.5 171q-193 -156 -361.5 -337t-301.5 -386z" />
<glyph unicode="B" horiz-adv-x="1206" d="M-578.5 156.5q15.5 15.5 39.5 5.5q74 -35 161 -56.5t180.5 -33t188.5 -14.5q41 -1 80 -1q53 0 103 2q193 6 386.5 43t369.5 111q98 41 136 87q33 40 33 79q0 6 -1 12q-8 53 -50 92t-149 72q-96 29 -178 45t-176 33q-29 -135 -95.5 -258t-183.5 -201q-6 -4 -13 -2t-11 9 t-3 15.5t11 16.5q92 72 148.5 182.5t95.5 247.5q-41 10 -77 18.5t-77 18.5q-10 2 -12 12t2 22.5t11 23t15 12.5q41 10 84 21t84 36q6 51 13.5 101t9.5 85q-43 25 -87 46.5t-85 37.5q-170 70 -318.5 101.5t-306.5 40.5q-16 0 -16 17t16 17q92 0 187.5 -14t187.5 -39 q117 -29 230.5 -69.5t191.5 -92.5v54q0 8 7 14t15.5 7t15.5 -4t7 -19v-86q27 -29 47 -66q15 -28 15 -60q0 -10 -1 -20q-4 -29 -23.5 -45t-60.5 -43q-2 -16 -7 -40.5t-7 -37.5q135 -25 240.5 -50.5t214.5 -66.5q90 -35 130 -85t40 -103q0 -55 -39 -107.5t-117 -93.5 q-92 -49 -195.5 -80.5t-210 -52t-214 -31t-207.5 -18.5h-196.5t-203 10.5t-195 35t-173.5 75.5q-23 16 -7.5 31.5zM449 715q6 -4 26.5 -8.5t26.5 -4.5q2 12 3 20.5t3 16.5q-16 -8 -31.5 -13t-27.5 -11zM578 836q14 6 20 19t7 28.5t-4 30t-11 22.5q-4 -29 -8 -59.5t-4 -40.5z " />
<glyph unicode="C" horiz-adv-x="1716" d="M126 250q-6 21 -7 44q0 47 28 101q35 72 86.5 138.5t109.5 128t120.5 115.5t122.5 100q57 47 148 110.5t194.5 119.5t207.5 92q84 29 156 28q18 0 35 -1q86 -9 143.5 -77t65.5 -219q0 -29 -15.5 -29t-15.5 29q-6 31 -14 63.5t-20.5 63t-31 56.5t-48.5 42q-20 10 -49 14.5 t-62 3t-63.5 -7.5t-55.5 -18q-242 -98 -466 -257t-392 -370q-93 -104 -107 -181q-4 -19 -3 -37q0 -52 32 -90q43 -50 131 -74.5t197 -24.5q190 0 349 16t310.5 49t308.5 80.5t345 106.5q25 6 26.5 -9.5t-26.5 -25.5q-158 -68 -306.5 -118t-306 -85t-335 -53.5t-392.5 -20.5 q-92 0 -178 22.5t-144 66.5t-78 108z" />
<glyph unicode="D" horiz-adv-x="1071" d="M-430 113q-6 21 -6 38q0 31 20 45q32 24 88 27q19 1 39 1q95 0 189 -24q114 -30 225 -71q86 88 147.5 198.5t100.5 234.5t58.5 254t23.5 255q-80 57 -173 105q-92 48 -190 70q-71 16 -144 16q-26 0 -54 -2q-100 -8 -195 -62q-23 -10 -30 0t3 21q80 53 167 73 q65 15 131 14l43 -2q87 -6 173 -34.5t166 -71.5q23 -10 52.5 -29.5t64.5 -42.5v115q0 23 21.5 23t21.5 -23v-141q106 -88 207.5 -187.5t177.5 -228.5q31 -53 63 -122q34 -68 52 -142q16 -64 16 -126q0 -10 -1 -20q-3 -72 -40 -131q-27 -49 -73 -76.5t-100 -43t-111.5 -19.5 t-104.5 -4q-117 0 -223.5 15.5t-233.5 56.5q-39 -37 -94 -61.5t-117 -36.5q-50 -10 -102 -11q-12 0 -24 1q-64 3 -117 26q-41 16 -73 46t-44 77zM-382 121q7 -19 27.5 -35t47.5 -30.5t47 -22.5q59 -14 111 -15q39 0 74 8q83 18 157 72q-55 16 -125 37q-71 21 -137 34 q-62 12 -110 12h-8q-52 -1 -75 -25q-16 -16 -9 -35zM197 113q68 -18 151.5 -36t170.5 -25q47 -4 92 -4q39 0 76 3q81 6 143 35q60 29 94 83q28 46 29 117q0 13 -1 27q-4 111 -43 213.5t-100 193.5t-139 171t-158 145q-10 -117 -30.5 -237.5t-57.5 -239.5t-92 -232.5 t-135 -213.5z" />
<glyph unicode="E" horiz-adv-x="1982" d="M102 322q-1 6 -1 12q0 43 38 83q43 46 144 83q72 27 162 56.5t180 51.5q147 37 290.5 75t290.5 85q-61 55 -135 98t-153.5 75t-161.5 55.5t-160 39.5q-12 6 -15 15.5t0 19.5t11 17.5t18 7.5q106 -12 222 -24.5t230 -23t218 -13.5q35 -1 67 -1q64 0 117 4q18 2 20.5 -5 t-3.5 -16t-17.5 -17.5t-19.5 -8.5q-145 0 -281.5 2t-283.5 13q102 -33 195 -95.5t192 -128.5q18 -12 16 -25.5t-29 -23.5q-113 -41 -247 -73.5t-271 -69.5t-269 -80t-243 -100q-48 -24 -48 -63q0 -4 1 -9q4 -27 40 -58.5t106 -54.5q98 -31 210.5 -49t243.5 -26q82 -5 173 -4 q53 0 111 2q154 4 337 22q98 8 188 21.5t180 34t181.5 52t191.5 80.5q20 10 19.5 -4t-19.5 -24q-141 -76 -275 -124t-272.5 -76t-283 -39t-306.5 -13q-56 -1 -108 -1h-51q-76 1 -153 6t-157.5 17.5t-173.5 32.5q-117 27 -183 81t-73 108z" />
<glyph unicode="F" horiz-adv-x="579" d="M-307 1107q2 11 8 19.5t12 8.5q500 0 981.5 -15.5t968.5 -56.5q12 0 12 -19.5t-12 -19.5q-317 14 -613 28.5t-614 28.5q-16 -68 -33.5 -137.5t-27.5 -122.5q127 -9 253 -9q82 0 162 4q206 9 412 24q27 0 21 -18.5t-21 -18.5q-207 -27 -417 -35t-418 -8 q-8 -41 -20.5 -103.5t-24 -133t-23.5 -143.5t-21.5 -136.5t-15.5 -111.5t-8 -66q-2 -16 -9 -29.5t-16.5 -21t-16.5 -5.5t-7 17q0 12 5 61t14 117.5t20.5 150.5t23 160t20.5 144.5t15 107.5q-86 0 -169 2t-181 16q-14 6 -15 18.5t6 24t19 20.5t27 9q84 -14 165 -25.5 t164 -11.5q14 72 27.5 130.5t28.5 127.5h-662q-14 0 -18 8.5t-2 19.5z" />
<glyph unicode="G" horiz-adv-x="2304" d="M112 131q21 105 68 200t112.5 179t133.5 152q141 154 316.5 252t367.5 133q96 12 200 14h19q95 0 183 -19q96 -20 179 -68t136 -138q10 -10 -2.5 -18.5t-12.5 3.5q-49 63 -113.5 101.5t-137 58.5t-147.5 25q-40 2 -78 2q-34 0 -66 -2q-227 -12 -410.5 -101.5 t-345.5 -242.5q-88 -84 -160.5 -175.5t-126.5 -207.5q-23 -43 -40 -95.5t-23 -107.5q-3 -26 -3 -51q0 -30 4 -59q7 -54 34 -101q27 -37 64.5 -53.5t80.5 -17.5h9q39 0 79 8q45 8 82 20q94 31 181 76t172 96l170 102t175 99q37 23 81 44t91 33q37 8 73 8h22q47 -4 90 -30 q43 -23 86 -81t55 -151q98 63 189.5 115.5t181.5 93.5t182.5 74.5t192.5 60.5q23 0 24.5 -13t-12.5 -23q-47 -16 -89 -30.5t-87 -32t-95.5 -39t-113.5 -52.5q-98 -53 -184.5 -107.5t-174.5 -119.5q16 -61 16 -130q0 -72 -12 -145q-12 -69 -32.5 -134.5t-40.5 -119.5 q-53 -88 -121 -158.5t-166 -111.5q-27 -10 -65.5 -23.5t-77.5 -15.5h-9q-34 0 -62 13q-32 14 -44 57q-6 23 -6 48q0 14 2 29q6 41 21.5 83t35 81t35.5 70q76 111 154 212t176 187q31 31 64.5 53.5t52.5 45.5q-4 90 -32 144t-59 77q-33 24 -77 24q-14 0 -29 -3 q-62 -9 -137.5 -41.5t-160.5 -83t-172 -103.5t-172 -101.5t-163 -76.5q-70 -33 -153 -58q-75 -21 -144 -21h-17q-77 3 -135.5 42t-78.5 135q-12 56 -12 112q0 50 9 99zM1185 -788q5 -35 54 -35q121 10 206 81.5t138 170.5q53 111 81 235q15 67 15 131q0 52 -10 101 q-53 -31 -108.5 -79t-108.5 -108.5t-100 -127t-82 -134.5q-12 -16 -36 -60t-39 -91q-11 -36 -11 -65q0 -10 1 -19z" />
<glyph unicode="H" horiz-adv-x="1503" d="M-321.5 237.5q-0.5 14.5 12.5 14.5q137 -4 264 -5h84q84 0 166 1q37 121 77 252t74.5 247.5t63.5 210t45 138.5q4 10 16.5 19t24.5 14.5t21.5 3t7.5 -14.5q-16 -47 -44 -141t-64 -214t-77 -254t-82 -259q150 4 295.5 9t292.5 15q35 117 73 256.5t72.5 285t63.5 287.5 t45 265q2 12 13.5 21.5t24.5 13.5t23.5 2t8.5 -14q-16 -131 -43 -276.5t-62 -291t-74.5 -285t-80.5 -257.5q178 14 360 33.5t381 47.5q12 0 18.5 -10t-18.5 -16q-203 -37 -388.5 -62.5t-369.5 -42.5q-27 -72 -52.5 -133t-47.5 -108q-4 -8 -12.5 -13.5t-16.5 -6.5t-13 2 t-1 14q16 41 37.5 102.5t44.5 136.5q-147 -10 -293 -16t-297 -6q-35 -98 -66.5 -181t-60.5 -143q-4 -8 -12.5 -13t-16.5 -6t-13 2t-1 13q20 53 48 138t60 192q-121 2 -243.5 6t-255.5 12q-12 0 -12.5 14.5z" />
<glyph unicode="I" horiz-adv-x="823" d="M88 348q0 18 16.5 20.5t16.5 -8.5q12 -57 37.5 -122.5t63.5 -113.5t88 -66q16 -6 33 -6q37 0 79 26q63 33 108 88t79 121.5t58.5 138.5t47.5 139q41 141 61 277q11 75 12 150q0 62 -8 126q-6 57 -34.5 86t-68.5 42.5t-87 16.5t-90 9q-8 0 -13.5 8t-6.5 17.5t3 17.5t17 6 q45 -4 99 -7t101.5 -17.5t84.5 -47.5t49 -94q7 -60 7 -124q-1 -97 -17 -202q-28 -174 -79 -352q-20 -68 -51.5 -147.5t-77 -150t-104.5 -123t-135 -66.5q-22 -5 -43 -5q-42 -1 -78 19q-53 28 -90 82.5t-57.5 124.5t-20.5 137z" />
<glyph unicode="J" horiz-adv-x="1048" d="M-1192 -106q-4 10 7 23t16 3q78 -72 161.5 -137.5t175 -120.5t191.5 -94t211 -55q71 -10 142 -10q133 0 268 35q206 54 380 165q211 135 342.5 301t181.5 356q30 117 30 240q0 79 -12 161q-32 210 -144 431q-174 -4 -337 -11q-76 -3 -154 -3q-89 0 -181 4q-14 -2 -15 13 t11 19q172 6 341 13.5t341 23.5q10 0 22 -4q7 -2 9 -6q111 -207 159 -416q27 -120 27 -237q0 -87 -15 -174q-36 -201 -166 -389.5t-378 -352.5q-90 -59 -195.5 -107t-217 -80t-227.5 -44q-50 -5 -98 -5q-65 0 -128 9q-113 14 -214.5 56t-193.5 101.5t-177 134.5t-163 157z " />
<glyph unicode="K" horiz-adv-x="976" d="M96 117q20 111 63.5 235.5t98.5 248.5t118.5 242t122 216t108.5 169.5t81 104.5q10 10 17.5 10t11.5 -5t5 -12t-3 -13q-61 -76 -118.5 -169t-111 -194.5t-101.5 -205t-89 -199.5q-47 -102 -71.5 -192.5t-47.5 -182.5l15 -16q6 0 2 -12.5t-17.5 -22.5t-35 -14.5 t-48.5 12.5zM226.5 300.5q9.5 14.5 21.5 25.5q57 39 150.5 104.5t206 143t237.5 161.5t243.5 161t224 139.5t179.5 97.5q12 0 13 -21.5t-21 -28.5q-49 -29 -145.5 -91t-216.5 -141t-249 -166t-243.5 -165t-202.5 -140.5t-123 -88.5q72 -66 162 -118t189.5 -91t203 -67 t201.5 -42q14 0 18 -6t2 -12t-8 -11t-12 -5q-104 6 -220 30.5t-226.5 66.5t-209 102.5t-170.5 137.5q-14 10 -4.5 24.5z" />
<glyph unicode="L" horiz-adv-x="1974" d="M85.5 127q-7.5 14 10.5 23q129 119 230.5 271t181.5 306t139.5 296t106.5 245q4 10 12 17t15 9t11.5 -2t0.5 -14q-43 -113 -97.5 -255t-126 -292.5t-166 -299t-215.5 -271.5q346 -39 618 -40h19q261 0 483 28q230 28 427.5 84.5t392.5 132.5q23 4 19.5 -10.5t-19.5 -24.5 q-139 -72 -304 -122t-342 -81t-360.5 -44t-360.5 -13t-343 11t-307 32q-18 0 -25.5 14z" />
<glyph unicode="M" horiz-adv-x="2097" d="M14 76q86 203 213 386t262 357q145 184 304 350t313 332q23 18 42 8t9 -34q-41 -162 -86 -320t-83 -316.5t-65.5 -320.5t-35.5 -328q0 -25 7 -47t22.5 -38.5t38 -24.5t51.5 -4q25 6 53 22.5t56 39t53.5 46t43.5 43.5q39 43 67 78t54.5 71t57 72.5t73.5 83.5 q23 23 37.5 17t18.5 -25q8 -39 9 -91t3 -107.5t7 -108.5t23 -94q16 -41 48 -65q27 -21 71 -21h15q68 0 151.5 39t163.5 92t145.5 107t96.5 87q10 10 17 -6t-3 -26q-57 -57 -131 -124t-153.5 -122t-163.5 -89q-65 -26 -125 -26q-18 0 -35 2q-86 14 -124 68.5t-50 127.5 q-11 67 -11 139v12v16q0 69 -8 127q-80 -86 -147.5 -181.5t-161.5 -179.5q-39 -29 -86 -59.5t-104 -30.5q-61 2 -91 40t-42 92q-9 40 -8 87q0 17 1 33q4 64 11 119q23 217 85 474t146 517q-150 -150 -296 -303.5t-280.5 -314t-250 -332.5t-201.5 -359q-10 -12 -23.5 -11 t-3.5 24z" />
<glyph unicode="N" d="M158 53q16 162 67 322t123 315.5t158 305t172 290.5q10 10 32.5 8t22.5 -22q0 -23 1 -49.5t3 -48.5q20 -170 59.5 -336t104.5 -336q31 -86 73 -168t95 -154q20 -27 46 -54.5t56.5 -52t64.5 -41t71 -22.5q8 -1 16 -1q48 -1 81 21q38 24 62 68q25 39 38.5 91.5t21.5 105.5 t10 103.5t2 88.5q0 172 -16.5 323t-46.5 308q-4 20 15 27.5t26 -15.5q33 -94 46 -195.5t23 -195.5q4 -57 7 -121q2 -48 2 -96v-32q-1 -66 -5 -130.5t-14 -121.5q-6 -39 -17.5 -80t-31 -78t-49 -66.5t-72.5 -46.5q-39 -14 -80 -14q-35 0 -71 10q-80 21 -142 76 q-63 57 -113.5 131t-90.5 156t-69.5 165.5t-50.5 161.5q-41 127 -70.5 262.5t-39.5 272.5q-86 -131 -165 -268.5t-144.5 -278.5t-113.5 -288.5t-69 -299.5q0 -23 -14 -22.5t-14 22.5z" />
<glyph unicode="O" d="M92 330q0 82 44 170t119 172t176 158.5t216 131t239 89t242 32.5q86 0 170 -19.5t162 -59.5q6 -6 6 -17q0 -16 -12 -16q-6 0 -8 4q-70 33 -143.5 47t-151.5 14q-86 0 -194.5 -24.5t-220 -70.5t-218 -109.5t-189.5 -142.5t-133.5 -170t-50.5 -189q0 -80 48.5 -132.5 t122 -83t160.5 -42t165 -11.5q45 0 137 9.5t203 33t227.5 63.5t213 102.5t157.5 148.5t61 203q0 92 -47 154.5t-119.5 101t-158.5 58t-162 26.5q-12 0 -12 12q0 16 27.5 16h45.5q63 0 133 -12t131.5 -39t111.5 -70t79 -104q16 -33 22.5 -65.5t6.5 -67.5q0 -125 -58.5 -220.5 t-150.5 -165t-203.5 -115.5t-218.5 -71q-106 -27 -217 -42t-227 -15q-35 0 -87.5 6t-111.5 20.5t-118.5 39t-106.5 61.5t-77 86t-30 115z" />
<glyph unicode="P" horiz-adv-x="1110" d="M-843.5 1102.5q1.5 11.5 12.5 21.5q201 137 442.5 225.5t482.5 139.5q115 27 243 47t257 20t253 -27t228 -95q63 -37 116.5 -92.5t89.5 -121.5q37 -66 53 -140q10 -44 9 -89q0 -30 -4 -59q-6 -74 -34.5 -137.5t-74.5 -117.5t-104.5 -99.5t-121.5 -81.5 q-127 -63 -260.5 -105.5t-280.5 -64.5q-25 -37 -60.5 -84t-76.5 -97.5t-86 -101.5t-90 -96q-10 -10 -23.5 -3t-3.5 19q78 96 144.5 181t125.5 182q-126 -23 -258 -23q-33 0 -65 1q-166 7 -326 38q-10 10 -3 24.5t17 14.5q148 -25 293 -25h40q165 4 335 25q41 63 76 119.5 t63.5 110t54 107.5t48.5 113q0 10 16 10.5t14 -10.5q-33 -117 -81 -218t-113 -218q92 18 192.5 45t194.5 68t175 101.5t134 146.5q42 68 58 146q10 48 10 95q0 29 -4 57q-10 76 -42 145t-89 122q-59 63 -131 101t-153 57.5t-166 23.5q-42 2 -84.5 2t-84.5 -2 q-186 -10 -375.5 -47t-380.5 -100q-137 -43 -270 -106.5t-262 -137.5q23 -10 42 -12t42 -2t22.5 -21.5t-22.5 -21.5q-41 0 -77 5t-64 21q-14 10 -12.5 21.5z" />
<glyph unicode="Q" horiz-adv-x="1597" d="M27 422q0 143 52 260t140 209t202 159.5t234.5 111.5t240.5 65.5t222 21.5q78 0 155 -12t139.5 -44t108.5 -85t62 -135q0 -10 -9 -22.5t-18 -12.5q-6 0 -6 14q-18 70 -66 115t-111.5 71.5t-136.5 38t-140 11.5q-104 0 -221 -21.5t-231 -64.5t-216 -107.5t-180 -149.5 t-124 -190.5t-46 -230.5q0 -111 43 -185.5t113.5 -119.5t160.5 -64.5t183 -19.5q133 0 266 35.5t250 97.5q-4 10 -16.5 28.5t-25 40t-21.5 44t-11 38.5q-2 10 9 20.5t20 6.5q12 -6 25 -25.5t25.5 -42t23 -46t20.5 -37.5q53 35 108.5 75.5t101.5 92t74.5 114t28.5 139.5 q0 41 -14.5 81t-38 72t-55 51.5t-68.5 19.5q-41 0 -82 -17.5t-77 -46t-61.5 -64.5t-33.5 -73q0 -20 -12 -21q-6 0 -6 21q6 45 32.5 91t67.5 83t89 60.5t97 23.5q53 0 92 -28.5t66 -71.5t39 -91.5t12 -87.5q0 -80 -30.5 -150.5t-80 -129.5t-110.5 -105.5t-123 -76.5 q12 -20 21.5 -35t16.5 -29t16.5 -28.5t21.5 -32.5q41 -66 98.5 -131.5t110.5 -130.5q6 -4 1 -8.5t-14.5 -7.5t-19.5 -2t-16 7q-96 106 -161 196.5t-122 178.5q-156 -78 -314.5 -111.5t-310.5 -33.5q-88 0 -171 28.5t-147.5 84t-103 136t-38.5 185.5z" />
<glyph unicode="R" horiz-adv-x="1419" d="M2 1189q0 7 18 11q133 29 264.5 63.5t278.5 45.5q49 2 105 3h12l102 -8q56 -8 108 -26t95 -53q73 -57 97 -138q12 -40 12 -83t-13 -89q-25 -74 -61.5 -131t-84.5 -105t-107.5 -88t-129.5 -77q-119 -66 -231.5 -111t-247.5 -90q94 -160 235.5 -262t338.5 -110h20 q101 1 207 37q116 40 222 102.5t193 137t140 140.5q12 14 17 -4t-3 -26q-47 -82 -141 -163t-207 -143.5t-231 -99.5q-107 -33 -198 -33h-19q-106 0 -207 34t-178 95q-154 119 -258 289q-10 25 18 39q92 29 213 72t268 125q74 39 139.5 85t115.5 100t82 115.5t38 133.5 q0 78 -25.5 130t-69.5 85t-101.5 49t-120.5 23q-37 3 -76 3q-51 1 -105 -5q-94 -10 -182 -27.5t-165 -37t-130 -32.5q-6 -2 -18.5 2t-20.5 9.5t-8 12.5zM92.5 218q-10.5 1 1.5 20q23 41 55.5 108.5t68.5 148t73 168t70.5 168t60.5 150.5t43 115q4 10 16.5 19t24.5 14.5 t21.5 3t7.5 -14.5q-14 -43 -41 -112.5t-61 -150.5t-74 -170t-80.5 -174t-82.5 -158.5t-79 -125.5q-14 -10 -24.5 -9z" />
<glyph unicode="S" horiz-adv-x="1386" d="M106 291q2 39 20.5 72.5t46.5 58t61.5 42t70.5 28.5q77 19 158 19q15 -1 31 -1q98 -4 190 -27q76 -18 157 -52t126 -99q6 -10 2 -18.5t-13 -10.5q-43 -12 -91 -12q-18 0 -36 2q-16 2 -16 15.5t16 15.5q23 2 43.5 3t42.5 5q-41 47 -104 70.5t-121 37.5q-92 23 -194 29 q-19 1 -37 1q-81 0 -156 -21q-33 -10 -62.5 -31t-49 -50.5t-22.5 -64.5q0 -5 -1 -10q0 -30 16 -62q29 -61 94.5 -108t145.5 -80t164 -51.5t149 -20.5l44 -2q61 1 129 9q94 10 174 44q80 36 128 100q38 51 38 126q0 20 -3 43q-10 84 -54 164t-102.5 155.5t-125 145t-124 131 t-97 115t-46.5 96.5q-1 5 -1 9q-1 29 21 53q23 27 72 26h7q76 -2 148.5 -33t136 -80t117.5 -110.5t97 -122.5q4 -6 -14 -11.5t-33 9.5q-59 59 -115.5 116.5t-117.5 102.5q-52 39 -102 56q-47 16 -79 16h-3q-32 -1 -45 -17t6 -47q6 -25 38.5 -64.5t78.5 -90t100.5 -110 t105.5 -121t94 -124t66 -117.5q43 -111 43 -203t-62 -163q-29 -33 -69.5 -58.5t-86.5 -45t-93 -32t-88 -18.5q-73 -12 -145 -12q-96 0 -190 21q-165 36 -311 128q-29 18 -59.5 43t-56.5 54q-24 30 -40 65q-12 28 -13 58q0 8 1 16z" />
<glyph unicode="T" horiz-adv-x="655" d="M-678 1067q-2 8 2 16.5t17 10.5q557 109 1123 152q369 28 742 29q199 0 400 -9q18 0 21 -6.5t-1 -13.5t-13 -12t-14 -5q-287 -4 -569 -13.5t-565 -28t-563.5 -51t-560.5 -85.5q-6 -4 -11.5 2t-7.5 14zM256 2q37 256 75 495.5t56 456.5q0 12 9.5 21.5t20.5 13.5t19 -1 t6 -23q-16 -272 -54 -499.5t-95 -442.5q-8 -23 -23.5 -26t-13.5 5z" />
<glyph unicode="U" horiz-adv-x="1652" d="M103 262q1 62 14.5 122t25.5 105q33 100 79 201t100.5 194t116 175t122.5 147q12 14 20.5 12.5t11.5 -13t-1 -26t-14 -26.5q-111 -119 -213.5 -295t-167.5 -412q-13 -52 -23 -116q-5 -34 -6 -68q0 -27 4 -53q8 -57 42 -100t105 -51q94 0 183.5 31.5t171.5 83.5 t157.5 116.5t145.5 130.5q170 170 306 371.5t265 427.5q4 8 14.5 11t19.5 1t14.5 -9.5t0.5 -15.5q-37 -84 -79.5 -167t-83.5 -167t-77 -170t-59 -174q-8 -34 -14 -78q-4 -29 -4 -58q0 -14 1 -28q3 -42 21.5 -78t59.5 -57q34 -17 76 -17q14 0 28 2q60 8 122.5 30t118.5 54.5 t95 61.5q10 6 20.5 -2t0.5 -16q-33 -37 -92.5 -75t-126 -65.5t-132.5 -38.5q-31 -5 -57 -5q-29 0 -53 6q-47 12 -76 36.5t-44 58.5t-17 75q-1 14 -1 28q0 28 3 58q8 53 18 98t22.5 87t29 84t38.5 91q-45 -63 -84 -119.5t-84 -109.5q-72 -90 -152.5 -176t-171.5 -158 t-190.5 -125t-206.5 -78q-30 -8 -68 -11q-19 -2 -37.5 -1.5t-36.5 1.5q-36 3 -68.5 15.5t-55.5 34.5q-46 35 -62 91q-16 52 -15 110v8z" />
<glyph unicode="V" horiz-adv-x="659" d="M-463 1286q20 45 48 84t64 63.5t77 32.5q12 2 24 1q30 0 62 -13q49 -20 93 -58t79.5 -85t62.5 -99.5t45 -101.5q43 -109 69.5 -234.5t44 -258t27 -267.5t17.5 -264q119 211 223 383t225 334q10 14 22.5 16t21 -1t12.5 -10t0 -11q-76 -111 -137.5 -205t-119 -185.5 t-113.5 -186.5t-122 -206q-10 -10 -23.5 -8t-23.5 21q-12 135 -22.5 248.5t-24.5 220t-33.5 211t-50.5 223.5q-35 137 -88 248.5t-127 179.5q-41 39 -83 52q-18 5 -37 5q-27 0 -58 -10q-35 -12 -62.5 -47t-56.5 -80q-8 -16 -24.5 -13t-10.5 21z" />
<glyph unicode="W" d="M4 1319q-2 10 4 15t14.5 4t15.5 -7t7 -14v-22q0 -46 6 -108q8 -77 19 -140q25 -170 66.5 -339t101.5 -335q31 -88 80 -180.5t116 -149.5q29 -25 55.5 -18t36.5 34q18 45 35 117t29 156t21.5 173t17.5 167q6 72 17 142.5t32 103.5q16 16 32.5 2.5t20.5 -29.5 q43 -137 87 -263t106 -251q29 -61 69.5 -116.5t92 -91.5t111.5 -43q10 -1 20 -1q51 0 108 29q47 23 91 69.5t84 107t74 129t60 134.5q23 63 40.5 116.5t31.5 106.5t25.5 111.5t21.5 130.5q0 10 11.5 14t13.5 -14q0 -143 -33 -276.5t-86 -260.5q-27 -61 -57.5 -125.5 t-69.5 -123t-89 -105.5t-118 -74q-53 -21 -104 -21q-13 -1 -27 1q-64 8 -121 42t-104 90t-82 124q-31 61 -55.5 120.5t-44 120t-39 122t-41.5 128.5q-16 -86 -22.5 -157.5t-16.5 -141.5q-6 -63 -15.5 -129.5t-20.5 -131t-25.5 -123t-33.5 -105.5q-23 -59 -75 -77 q-14 -5 -29 -6q-40 0 -86 36q-27 20 -52.5 52t-49 68.5t-43 77.5t-33.5 78q-55 141 -90 286.5t-68 315.5q-16 109 -29.5 228.5t-13.5 226.5z" />
<glyph unicode="X" horiz-adv-x="1609" d="M-774 -725q2 12 14 25q186 176 400.5 356t433.5 348t433 314.5t402 254.5q-66 66 -126 126.5t-124.5 124t-137 135t-163.5 161.5q-10 10 -7 20.5t12.5 17.5t22.5 7t26 -12q166 -156 299 -286t262 -253q125 66 266 137.5t295 142.5t316.5 134.5t330.5 114.5q27 8 36 2 t6 -20.5t-16.5 -30t-31.5 -21.5q-311 -111 -594 -230.5t-557 -275.5q111 -119 239 -249t281 -298q6 -6 4 -15t-8 -15t-15 -8t-16 4q-147 145 -278 277t-273 261q-150 -90 -283.5 -174t-261.5 -171t-255 -180t-264.5 -203.5t-290 -240.5t-330.5 -290q-14 -12 -26.5 -13.5 t-17.5 5t-3 18.5z" />
<glyph unicode="Y" horiz-adv-x="1290" d="M-276 1200q6 70 25.5 137.5t53.5 122.5q18 18 38 6t12 -30q-53 -119 -57 -251q-1 -13 -1 -27q0 -117 36 -223q40 -118 125 -208t212 -123q98 -29 194 -29q63 0 124 13q157 30 298 117q68 39 132.5 85t119.5 103q119 96 215 215q6 8 17.5 9t24 -3t20.5 -13t6 -18 q-23 -129 -57.5 -245.5t-80.5 -232.5t-102.5 -235.5t-120.5 -254.5q-10 -20 -26.5 -31.5t-29.5 -13.5t-18 5t5 23q74 162 125 281t89 218t66.5 189.5t57.5 194.5q-45 -45 -99.5 -95t-114 -99.5t-123 -93.5t-128.5 -79q-162 -76 -330 -97q-45 -6 -91 -6q-123 0 -249 42 q-123 47 -213 150.5t-127 228.5q-20 61 -28 130q-4 36 -4 73q0 33 4 65z" />
<glyph unicode="Z" horiz-adv-x="2027" d="M76 190q6 62 33.5 122.5t62.5 105.5q125 158 282.5 271.5t315.5 205.5q100 57 212 118.5t235 106.5q-156 8 -311 8q-46 0 -93 -1q-201 -3 -414 -3q-12 0 -20 6.5t-11 13.5t-1 13t14 6q123 0 245 4q122 3 242 5q30 0 59 1q90 1 180 -3q120 -4 243 -23q29 -4 29.5 -18.5 t-29.5 -24.5q-272 -82 -529.5 -234.5t-480.5 -349.5q-66 -68 -112 -134.5t-68 -143.5q-10 -41 -10 -74q0 -24 5 -44q13 -48 48 -79t86 -46t108.5 -22.5t115.5 -8.5t108 -1q111 0 213 8.5t202.5 22.5t200.5 33.5t207 44.5q111 27 194.5 51.5t163.5 55t169 72.5t212 103 q10 10 17.5 -5t-5.5 -23q-96 -55 -178 -99.5t-159.5 -78t-159.5 -61.5t-179.5 -51.5t-215 -47t-269.5 -49.5q-100 -19 -234 -33q-118 -13 -237 -12h-33q-39 0 -85 2t-92 10t-90 22.5t-77 36.5q-70 41 -93 99q-18 46 -18 96q0 13 1 26z" />
<glyph unicode="a" horiz-adv-x="548" d="M43 178q2 37 27.5 81t66.5 86t95.5 74t115.5 44q38 7 69 8q28 -1 50 -7q47 -12 84 -61q4 -8 0 -17t-13.5 -15t-20.5 -9.5t-17 3.5q-29 23 -69 32q-16 4 -35 4q-27 0 -60 -8q-53 -12 -100.5 -44t-80 -67.5t-44 -65.5t9.5 -36q19 -7 43 -6q12 0 24 1q38 5 76.5 18.5t68 30 t42.5 30.5q25 29 45 29.5t24 -13.5q4 -29 7.5 -56.5t4.5 -49.5q0 -10 -17 -22.5t-33 5.5q-10 10 -14.5 26.5t-4.5 27.5q-12 -12 -44 -27.5t-73 -27t-84 -18.5q-27 -4 -50 -4q-13 0 -25 1q-29 4 -49.5 17.5t-18.5 35.5z" />
<glyph unicode="b" horiz-adv-x="929" d="M108 542q12 98 42 175q8 20 23 44.5t35.5 43t45.5 21.5t49 -19q16 -16 33.5 -44t33 -60.5t28 -66.5t20.5 -61q23 -78 35 -170t12 -174q0 -6 -5 -12t-12.5 -7t-12.5 3t-5 16q0 55 -7 120t-22.5 131.5t-40 128t-57.5 108.5q-10 14 -18 22t-17.5 12.5t-17.5 0.5 q-31 -16 -50 -68q-20 -52 -29 -112q-7 -50 -8 -98q0 -10 1 -22q2 -60 14 -96q47 -123 137.5 -183t186.5 -77q26 -4 68 -5q4 0 8 -1q37 0 66 10q32 10 42 32q2 5 2 11q0 20 -24 52q-6 12 -4 25.5t9 22.5t16 16t15 7q31 4 75 11.5t95.5 17.5t105.5 24.5t101 32.5q18 6 23.5 0 t4.5 -16t-8 -22.5t-16 -14.5q-33 -12 -76.5 -24.5t-89 -23.5t-87.5 -18.5t-70 -11.5q6 -27 6 -50q0 -30 -10 -51q-18 -38 -53 -58.5t-81 -25.5q-32 -4 -60 -4q-11 0 -21 1q-68 4 -133.5 25.5t-121 60.5t-97.5 96t-62 131q-21 69 -21 138q1 28 4 56z" />
<glyph unicode="c" horiz-adv-x="698" d="M36 148v8q0 30 11 61q12 35 37 65.5t51 51.5q59 51 144.5 81.5t183.5 36.5q23 2 46 2q77 0 155 -16q102 -22 198 -73q20 -10 8 -23.5t-26 -7.5q-98 39 -202 52q-61 8 -118 8q-40 0 -78 -4q-94 -9 -169.5 -37.5t-120.5 -71.5q-54 -51 -54 -107q0 -55 66 -78 q63 -17 123 -17q37 1 73 7q94 16 197 57q12 4 17.5 0t7.5 -11t-1 -14t-7 -9q-39 -20 -71 -35t-62.5 -25t-65.5 -16t-80 -8q-23 -2 -56.5 1t-68.5 11t-64.5 21.5t-46.5 31.5q-25 24 -27 58z" />
<glyph unicode="d" horiz-adv-x="921" d="M10 182q4 41 38 83t86 77t118 62q66 28 130 42q53 12 104 12h20q60 -3 104 -28q16 -10 2 -23.5t-34 -9.5q-25 7 -68 9q-12 1 -25 0q-33 0 -71 -4q-54 -6 -112 -25t-114 -55q-63 -40 -96 -88q-22 -31 -22 -59q0 -14 6 -28q8 -18 28.5 -33.5t59.5 -17.5h10q38 0 90 12 q60 14 146 56q57 27 100 60.5t79 76.5t64.5 95.5t59.5 117.5q37 86 60.5 178t45.5 178q2 12 14.5 20.5t24.5 8.5t20.5 -7.5t4.5 -21.5q-12 -49 -21.5 -89t-15.5 -79.5t-10.5 -79.5t-8.5 -90q-3 -40 -3 -81q0 -59 6 -119q12 -102 40 -230q2 -10 -5 -17t-17 -11t-20.5 -2 t-16.5 14q-12 27 -22.5 77t-17.5 107.5t-10 114.5q-2 34 -2 63q0 19 1 35q-39 -92 -84 -156.5t-94.5 -110.5t-102.5 -76.5t-110 -55.5q-112 -45 -184 -45h-6q-73 2 -109 22q-36 18 -50 50q-11 25 -11 54q0 9 1 17z" />
<glyph unicode="e" horiz-adv-x="839" d="M105 240v13q-1 51 19 99q22 54 64.5 93.5t98.5 46.5q37 2 59.5 -6.5t33.5 -21.5t11 -30.5t-6 -32.5q-10 -20 -31.5 -36.5t-49.5 -25.5t-59.5 -7t-60.5 20q-16 -31 -21 -63.5t9 -61.5q14 -33 42 -52t61.5 -29.5t70.5 -11.5h11l63 5q147 23 295.5 83t283.5 132 q10 12 13.5 -5t-13.5 -27q-117 -76 -235.5 -128.5t-200.5 -80.5q-43 -14 -100 -27.5t-115 -15.5h-15q-51 0 -97 12q-54 14 -91 57t-40 101zM207 389q29 -14 59.5 -13t40.5 21q16 23 2 40.5t-51 -7.5q-31 -16 -51 -41z" />
<glyph unicode="f" horiz-adv-x="636" d="M7 374q-1 9 5 20.5t17.5 20.5t27.5 9h179q14 74 33.5 156t49 157.5t71.5 139t102 100.5q45 31 95 42q32 7 65 7l35 -2q50 -6 97 -27.5t84 -58.5t59.5 -84t34 -99.5t12.5 -106.5v-12q0 -48 -7 -93q0 -16 -19.5 -16.5t-19.5 16.5q5 44 5 92v17q-1 57 -15.5 110t-46 99 t-83.5 77q-67 40 -141 40h-17q-83 -5 -157 -79q-45 -45 -75.5 -102.5t-51 -123t-33 -134t-18.5 -136.5q135 0 265 -11t249 -27q14 0 14 -19.5t-14 -19.5q-135 14 -257 16t-257 2q74 -37 138.5 -92t102 -123t42.5 -143v-13q0 -70 -46 -143q-18 -29 -40.5 -37t-47 -2t-48 22.5 t-42.5 36.5q-29 31 -51 65t-38.5 77t-26 99t-11.5 132v111q-29 14 -55.5 22.5t-75.5 8.5h-78q-10 0 -11 9zM288 139q9 -76 46 -151q12 -23 35.5 -62t52.5 -63.5t58 -19t52 66.5q7 27 7 54q0 29 -8 58q-15 58 -51 110t-85 97t-100 76q-10 -58 -10 -109q0 -30 3 -57z" />
<glyph unicode="g" horiz-adv-x="882" d="M-370 -450q10 67 34 122q35 88 90.5 161t123 135.5t145 116.5t155.5 103q-18 -10 -36.5 -11t-30.5 3q-8 2 -18.5 13.5t-14.5 27.5q-3 14 -3 27q0 28 12 55q17 39 56 66.5t99 40.5q36 7 77 7q27 0 56 -3q6 0 6 -8.5t-6 -17.5t-17.5 -15t-29.5 -6h-13l-61 -7 q-37 -10 -64.5 -27.5t-43 -43t-9.5 -58.5q9 -1 19 -1q42 0 78 16q45 18 82.5 47t75.5 63.5t79 63.5q16 10 28.5 4t18.5 -14q8 -10 13.5 -25.5t9.5 -44.5q127 39 241 40h16q108 0 234 -13q18 -2 23.5 -10.5t-1.5 -16.5t-26.5 -14.5t-50.5 -3.5q-59 4 -111 6q-25 1 -50.5 1 t-51.5 -1q-51 -2 -102.5 -10.5t-110.5 -26.5q10 -62 10 -124q0 -64 -11 -128q-20 -127 -77 -238q-41 -80 -99.5 -155.5t-130 -136t-155.5 -101.5t-176 -49q-27 -6 -64.5 -6t-75.5 7t-71 23.5t-49 45.5q-24 41 -24 90q0 15 2 31zM-293 -479q0 -47 22.5 -69.5t56.5 -31.5 q28 -8 60 -8h14q40 2 72 6q104 23 194.5 71t162.5 134q125 135 185 304q45 125 45 257q0 46 -5 92q-59 -18 -111.5 -39.5t-102.5 -47t-103.5 -56.5t-114.5 -70q-43 -27 -83 -60.5t-75 -70t-64.5 -73.5t-52.5 -70q-20 -29 -39.5 -61.5t-35 -67.5t-22.5 -70q-4 -23 -4 -45 q0 -12 1 -24zM369 276q35 10 66.5 24.5t66.5 25.5q0 10 -5.5 21.5t-7.5 17.5q-27 -23 -60.5 -47.5t-59.5 -41.5z" />
<glyph unicode="h" horiz-adv-x="1069" d="M113 100q4 27 13 97.5t22.5 163t29 197t28.5 198.5t23.5 166.5t14.5 101.5q2 14 15 25.5t26.5 15.5t23.5 1t8 -17q-2 -20 -13 -88t-25.5 -160t-32 -197.5t-32.5 -200t-26.5 -167t-13.5 -97.5q33 31 83 67t106.5 67.5t116 56t110.5 32.5q48 9 92 9q52 0 97 -13 q83 -24 144.5 -69t103.5 -96t67 -82q8 -12 -0.5 -20.5t-25.5 -10.5t-37.5 4t-33.5 22q-25 33 -57.5 76t-82.5 77q-49 35 -121 49q-26 5 -57 5q-53 0 -118 -16q-45 -12 -97 -38t-106.5 -58.5t-105.5 -68.5t-94 -69q-23 -16 -36 2.5t-9 34.5z" />
<glyph unicode="i" horiz-adv-x="552" d="M143 352q6 8 22.5 14.5t27.5 -14.5q37 -72 97 -117t130 -51q10 -1 19 -1q60 0 123 32q73 37 132 133q10 18 17.5 18.5t11.5 -10t4 -25t-6 -22.5q-74 -111 -158 -153q-74 -37 -142 -38q-9 0 -19 1q-78 6 -141.5 52t-98.5 112q-20 38 -20 60q0 5 1 9zM336 787.5 q0 15.5 9 27.5t28 12q8 0 14 -10q2 -4 2 -8q20 0 34.5 -6t18.5 -29q2 -12 -19.5 -27.5t-49.5 -7.5q-18 4 -27.5 18.5t-9.5 30z" />
<glyph unicode="j" horiz-adv-x="782" d="M-24 -360q-9 41 -9 81q0 57 19 113q18 53 51 102.5t73 93.5t85 83t90 71q-39 47 -74 83t-84 71q-10 10 5 25.5t30 7.5q47 -31 87 -72t75 -86q59 41 126.5 78t133.5 59q98 33 181 34h8q79 0 167 -19q14 -4 14 -9.5t-8 -11.5t-21.5 -9t-25.5 -3q-53 4 -99 4t-90 -7 t-91.5 -21.5t-100.5 -41.5q-39 -20 -82 -46.5t-80 -51.5q57 -76 122 -177.5t110 -211.5q16 -41 30.5 -90t18.5 -99q1 -13 1 -25q0 -38 -10 -74q-12 -48 -48 -85q-51 -49 -120 -64q-41 -10 -83 -10q-29 0 -57 4q-72 11 -138.5 45.5t-113.5 86.5q-68 74 -92 172zM50 -332 q9 -63 36 -106q37 -59 92 -102.5t120 -61.5q37 -11 75 -11q27 0 55 5q66 14 121 69q29 29 34 69q2 13 2 28q0 30 -7 65q-16 76 -46 151.5t-67 143.5t-76 125t-72 98q-53 -39 -93 -72.5t-79 -84.5q-29 -41 -56.5 -94.5t-37.5 -102.5q-5 -29 -5 -60q0 -28 4 -59zM227 763 q-2 22 33 32q18 4 33.5 3t37 -7.5t52.5 -14.5t80 -16q27 -4 32 -10.5t-3.5 -12.5t-23.5 -9t-30 -3q-35 2 -78 4t-88 8q-43 4 -45 26z" />
<glyph unicode="k" horiz-adv-x="743" d="M109 117q18 125 62 254t103.5 237.5t126 188t127.5 106.5q20 8 22.5 -3t-5.5 -15q-47 -39 -81 -77t-61.5 -78t-52 -85t-51.5 -100q-41 -80 -68.5 -181.5t-50.5 -193.5l15 -16q6 0 4 -12.5t-13.5 -22.5t-31 -14.5t-45.5 12.5zM226.5 300.5q9.5 14.5 21.5 25.5 q106 66 221 129t233 116q12 0 13.5 -21.5t-21.5 -27.5q-55 -23 -103 -46t-95 -51t-94.5 -60.5t-100.5 -73.5q72 -66 161 -113t185 -81t195.5 -57.5t191.5 -43.5q12 0 15.5 -5t2.5 -12.5t-6.5 -12.5t-11.5 -5q-104 6 -216.5 27.5t-218 59.5t-201 94.5t-167.5 133.5 q-14 10 -4.5 24.5z" />
<glyph unicode="l" horiz-adv-x="983" d="M133 380q0 42 7 82t20 75q27 80 75 158.5t109 138.5q20 20 53 48.5t74 52t88 39.5q42 14 86 13h12q49 -5 67 -37q11 -21 11 -44q0 -14 -4 -29q-8 -29 -35.5 -77t-71.5 -103.5t-101.5 -112t-123.5 -103.5q-31 -22 -53 -22q-2 1 -6 1q-24 4 -6 19q82 70 148.5 145.5 t109.5 140t59 110t2 53.5q-23 12 -60.5 1t-78.5 -35t-80 -54.5t-63 -57.5q-96 -111 -138.5 -208t-46.5 -207q2 -74 35 -117t79 -65.5t97.5 -30t91.5 -7.5h20q81 1 159 15q88 16 167.5 45t150.5 67.5t128 81.5q6 6 16.5 9.5t18.5 3.5t10 -5.5t-6 -15.5q-29 -35 -83 -75 t-116 -68q-78 -35 -141 -57.5t-118.5 -36t-105.5 -18.5t-100 -5q-90 2 -175 28.5t-132 94.5q-27 39 -38 83t-11 86z" />
<glyph unicode="m" horiz-adv-x="1171" d="M100 100q6 39 11.5 69t10.5 58.5t10 60t11 74.5q0 6 7.5 12.5t16.5 8.5t16 -2t5 -19q-8 -59 -14 -109t-16 -128q59 51 138 99t165 77q25 8 35 2q6 -4 10 -8q14 -72 36.5 -104.5t45 -44t41 -7.5t26.5 8q31 12 69 33t77 42.5t74.5 41t64.5 29.5q14 4 42 4t58 -12 q39 -20 64.5 -42t50.5 -61q8 -14 2 -27.5t-20.5 -21.5t-30.5 -7t-27 17q-35 51 -73 77q-20 14 -42 14q-19 0 -38 -11q-84 -45 -160 -90t-135 -72q-16 -6 -36 -5t-41.5 18.5t-46 56.5t-48.5 107q-43 -14 -80 -31t-73 -38.5t-74.5 -47t-86.5 -58.5q-23 -16 -36 2.5t-9 34.5z " />
<glyph unicode="n" horiz-adv-x="757" d="M98 100q6 39 10.5 70t9.5 60.5t10 63.5t11 77q0 6 7.5 12t16.5 8t15 -2t6 -18q-4 -41 -7 -89.5t-7 -115.5q27 39 66.5 87t84 93t90.5 82t87 57q32 13 58 13h12q30 -4 42 -41q8 -29 13.5 -62t10.5 -68.5t14.5 -72.5t29.5 -74q8 -18 1 -26.5t-21.5 -9.5t-29 4.5t-16.5 15.5 q-14 31 -22 62.5t-13.5 64.5t-9.5 63.5t-10 55.5q-6 27 -25 27q-14 0 -36 -15q-37 -25 -80 -62.5t-89 -85t-93.5 -101.5t-90.5 -110q-23 -16 -36 2.5t-9 34.5z" />
<glyph unicode="o" horiz-adv-x="720" d="M137 303q6 33 18.5 55.5t22.5 24.5q25 0 19 -41q-4 -26 -3 -51q0 -17 1 -33q4 -41 18 -74.5t38.5 -57.5t59.5 -32q1 4 1 9q0 30 -22 71q-26 47 -73 94q-8 4 -9 14.5t3 20.5t10 17.5t12 7.5q145 -14 307 -14t328 51q16 6 21.5 -3.5t4.5 -21.5t-8 -23.5t-18 -13.5 q-86 -18 -170 -26.5t-160 -10.5q-38 -1 -74 -1t-68 1q-66 2 -113 4q29 -29 60.5 -77t43.5 -97q1 -9 2 -16q0 -33 -29 -41q-13 -1 -26 -1q-39 0 -73 14q-46 18 -77 54q-30 36 -44 88q-8 28 -8 59q0 24 5 50z" />
<glyph unicode="p" horiz-adv-x="806" d="M88 -301q12 74 19.5 163t12.5 179t10 172t11 141q0 16 19.5 16.5t19.5 -16.5q0 -86 -1 -201.5t-9 -238.5q25 55 49.5 100t51 85t58 78t70.5 79q10 20 19 33q8 10 16 12t19 -14q47 29 94 46t106 29q33 6 59 6q33 0 57 -9q44 -17 62 -56q8 -23 5.5 -48.5t-13 -51t-26 -48 t-29.5 -36.5q-43 -37 -98 -49q-30 -8 -60 -8q-23 0 -45 4q-51 10 -91 40.5t-54 77.5q-33 -35 -56.5 -64.5t-42 -57t-36 -58.5t-37.5 -67q-18 -41 -32.5 -74t-25 -63.5t-20.5 -63.5t-23 -74q-6 -14 -16 -16t-21.5 4t-18.5 19.5t-3 29.5zM463 225q12 -47 50 -75.5t101 -28.5 q53 6 98.5 41t61.5 82q4 23 -7 38t-32.5 23t-53.5 8t-67 -10q-43 -10 -82.5 -29.5t-68.5 -48.5z" />
<glyph unicode="q" horiz-adv-x="1400" d="M49 234q8 34 34 66t64 54q45 27 96.5 39.5t99.5 13.5h10q43 0 81 -7q43 -9 74 -25q10 -4 11 -10.5t-3 -11.5t-10 -7t-12 2q-29 10 -69 16q-34 4 -71 4h-13q-44 -1 -87 -12.5t-78 -31.5q-37 -23 -53.5 -54.5t-11 -58.5t30.5 -42q16 -9 39 -9q15 0 34 4q90 18 156.5 53 t140.5 88q51 41 95 77t112 95q10 10 22.5 -1t8.5 -32q-10 -55 -19.5 -121.5t-19 -135t-19.5 -137t-20 -128.5q61 66 118.5 117t118.5 102q61 49 140 94.5t165 79t174 49.5q56 11 108 11q32 0 63 -4q12 0 14 -6.5t-3 -13.5t-12.5 -14t-13.5 -7q-82 0 -157.5 -13.5t-149.5 -42 t-147.5 -71.5t-153.5 -103q-47 -41 -93 -84t-88 -96t-78 -118.5t-63 -149.5q-10 -20 -33.5 -17t-23.5 23q43 172 70.5 358.5t68.5 374.5q-53 -41 -90 -70.5t-67.5 -53t-57 -42t-57.5 -37.5q-76 -45 -163 -72q-42 -14 -81 -14q-41 0 -78 15q-37 20 -49 52q-7 19 -7 39 q0 13 3 26z" />
<glyph unicode="r" horiz-adv-x="598" d="M125 352q0 8 8 14.5t19.5 7.5t20.5 -5.5t9 -24.5v-42t-1 -55.5t-1 -60v-55.5q45 98 110 167q64 68 141 100q63 26 131 26q15 0 30 -1q84 -7 170 -56q12 -6 12 -14.5t-7 -14.5t-19.5 -8t-24.5 2q-49 18 -84 27.5t-63.5 11.5t-52 -2t-48.5 -13q-61 -23 -105 -58.5 t-79 -78.5t-62.5 -90t-56.5 -90q-16 -14 -27.5 -12t-11.5 30v97.5t-1 73t-3 61t-4 63.5z" />
<glyph unicode="s" horiz-adv-x="423" d="M37 45q0 12 20.5 27.5t34.5 15.5q6 0 8 -2q31 -16 70 -35.5t68 -19.5q20 0 20 12q0 2 -1 4t-1 4q-23 57 -46.5 100.5t-43 79t-31.5 69.5t-12 75q0 59 28.5 89t71.5 30q16 0 17 -13q0 -10 -9.5 -13t-19.5 -8t-19.5 -14.5t-9.5 -29.5q0 -31 13.5 -68t36 -79t51 -90 t57.5 -99q12 -29 12 -47q0 -39 -34.5 -52.5t-69.5 -13.5q-47 0 -102.5 17.5t-104.5 52.5q-4 2 -4 8z" />
<glyph unicode="t" horiz-adv-x="536" d="M-338 571.5q2 12.5 31 12.5q42 -1 82 -1h39q58 1 116 4t121.5 9t138.5 12q10 35 18.5 63.5t18.5 51.5q2 12 14.5 22.5t25 14.5t21.5 1t7 -18q-4 -29 -17.5 -58.5t-27.5 -74.5q121 10 221 19.5t213 19.5q299 31 592 63.5t592 32.5q10 0 10 -14t-10 -14 q-307 -20 -609.5 -49t-601.5 -60q-113 -10 -208 -19t-207 -20q-6 -20 -13.5 -40.5t-15.5 -46t-19.5 -58.5t-23.5 -80q-8 -33 -19.5 -77t-14.5 -85q-1 -8 0 -17q0 -31 8 -55q12 -32 46 -42q16 -4 39 -1t46.5 11t47 19.5t39.5 21.5q82 51 168 116.5t158 126.5q20 10 21.5 -4 t-9.5 -24q-20 -20 -47.5 -49t-58.5 -58.5t-62.5 -57.5t-56.5 -42q-25 -20 -70 -50t-95 -52.5t-100 -28.5q-10 -1 -19 -1q-38 0 -66 19q-31 25 -42 65q-9 34 -9 71v14q2 45 11 90t21 82q12 45 21.5 77.5t19 58.5t17.5 47.5t14 43.5q-82 -6 -145.5 -10t-118.5 -5h-36 q-36 0 -72 1q-52 2 -113 8q-33 2 -31 14.5z" />
<glyph unicode="u" horiz-adv-x="827" d="M117 230q6 48 27.5 95.5t52.5 84.5q23 20 46 20t7 -22q-23 -31 -44 -78q-22 -48 -28 -94q-2 -13 -1 -25q1 -31 11 -57q16 -36 66 -50q16 -4 31 -4q39 0 81 21q58 29 115.5 75t108.5 94t92 75q10 0 25.5 -9.5t9.5 -25.5q-8 -27 -7 -51.5t10 -43t29.5 -26.5t53.5 0 q20 2 41.5 17.5t42 37t37 45t28.5 43.5q14 14 33.5 11t11.5 -21q-23 -41 -51 -79t-60 -65.5t-62.5 -44t-55.5 -16.5q-39 0 -62.5 14.5t-36 38t-12.5 51t7 54.5q-47 -49 -109.5 -105.5t-130.5 -96.5t-136 -50q-13 -2 -26 -2q-53 0 -98 33q-33 24 -43 66q-6 26 -6 55 q0 17 2 35z" />
<glyph unicode="v" horiz-adv-x="761" d="M119 344q0 6 8 11t19.5 8.5t20.5 2.5t13 -10q8 -23 19.5 -53.5t29 -68t44 -80.5t67.5 -88q0 59 -3 115.5t-13 109.5q-4 29 16 49q78 20 170 28.5t175 10.5q28 1 53 1q50 0 94 -3q64 -4 90 -10q12 0 13 -13.5t-30 -19.5q-18 -4 -72.5 -4t-129 -2t-161.5 -9.5t-169 -27.5 q8 -53 20.5 -135t12.5 -156q0 -12 -18.5 -20.5t-31.5 4.5q-57 45 -97 96t-67.5 100t-45 92t-27.5 72z" />
<glyph unicode="w" horiz-adv-x="1189" d="M133 268q4 56 12 90q0 8 6.5 14.5t12.5 7.5t12 -3t6 -19q0 -20 -1 -69v-9q-1 -46 9 -88q10 -48 38 -76q15 -16 40 -16q19 0 43 9q35 14 69 38.5t65.5 54t61.5 61.5t58 61q12 12 32.5 11t27.5 -18q23 -41 61.5 -87t86.5 -80q47 -34 101 -48q18 -4 36 -5q36 0 71 18 q47 23 63 63q13 34 12 72v14q-3 45 -20 87t-35 67q-6 8 -5 19.5t7.5 18.5t16.5 8t20 -7q27 -23 51.5 -73t29.5 -108q1 -10 0 -20q-1 -48 -19 -94q-24 -56 -92 -88q-48 -23 -100 -23q-10 0 -20 1q-63 5 -121 33t-108.5 75t-82.5 106q-31 -35 -65 -72.5t-73 -69.5t-84 -53.5 t-94 -23.5h-11q-47 0 -73 31q-28 35 -38 85q-8 36 -8 75q0 15 1 30z" />
<glyph unicode="x" horiz-adv-x="526" d="M-246 -263q0 5 8 11q127 127 271.5 231.5t285.5 217.5q-43 41 -83.5 70.5t-81.5 58.5q-6 2 -8.5 11t-0.5 16t8.5 11.5t18.5 -2.5q57 -23 111.5 -62.5t91.5 -68.5q23 16 49.5 37t44.5 35q8 6 14 3t8.5 -10t1.5 -15.5t-6 -12.5q-20 -23 -40.5 -41t-34.5 -30 q29 -27 57 -54.5t53 -56.5q6 -4 2 -11t-12 -11.5t-18.5 -5.5t-16.5 5q-37 29 -66.5 51.5t-54.5 43.5q-139 -113 -286.5 -221.5t-288.5 -206.5q-4 -4 -10.5 -4t-11.5 3t-5 8z" />
<glyph unicode="y" horiz-adv-x="1105" d="M78 121q0 25 5 68.5t14 86.5t21.5 75t26.5 32q10 0 23.5 -7t9.5 -24q-8 -41 -25.5 -103.5t-17.5 -127.5q57 27 108.5 71t103.5 87t109.5 73.5t127.5 30.5q66 0 115 -43t75 -96q61 25 118.5 43t117 31.5t122 24.5t132.5 22h6q10 0 10 -9q0 -6 -5 -15t-15 -13 q-129 -31 -244 -59.5t-219 -73.5q18 -68 18 -148q0 -94 -27.5 -196.5t-86 -188.5t-150.5 -142.5t-221 -56.5q-94 0 -157.5 47.5t-63.5 157.5q0 76 36.5 143.5t93 123t124 100.5t126.5 76q23 12 52.5 26.5t60.5 29.5t61.5 29.5t55.5 24.5q-25 53 -61.5 79t-84.5 26 q-63 0 -119.5 -40t-111.5 -89.5t-110.5 -89t-116.5 -39.5q-10 2 -19 8q-18 10 -18 45zM190 -328q0 -39 17.5 -66.5t45.5 -45t60.5 -25.5t65.5 -8q90 0 164 49q57 37 100 86t69.5 107.5t40 121t13.5 125.5q0 41 -5 81t-16 77q-133 -51 -239.5 -115.5t-192.5 -148.5 q-18 -18 -39.5 -45t-40 -58.5t-31 -66.5t-12.5 -68z" />
<glyph unicode="z" horiz-adv-x="741" d="M27 96q-4 12 8 31q31 31 69.5 58.5t78.5 53t77 49t66 48.5q20 14 20 24.5t-14.5 16.5t-39 9t-52.5 3q-12 0 -21.5 8.5t-13.5 16.5t-1 15t19 7q25 2 63 2t73.5 -5t62.5 -15t27 -31q0 -20 -39 -54t-105 -85q-53 -41 -91 -63.5t-77 -55.5q18 -9 50 -9q15 0 35 2 q58 7 132 26.5t156 48t156.5 59.5t136 60t94.5 49q18 10 17 -8.5t-23 -30.5q-135 -90 -269.5 -149.5t-249 -90.5t-203.5 -31t-134 31q-6 4 -8 10z" />
<glyph unicode="&#xa8;" horiz-adv-x="790" d="M127 726q0 15 9 27.5t28 12.5q8 0 14 -10q2 -4 2 -8q20 0 34.5 -6.5t18.5 -28.5q2 -12 -19 -27.5t-50 -7.5q-18 4 -27.5 18.5t-9.5 29.5zM318 748.5q-11 19.5 6 33.5q10 16 31.5 15.5t35.5 -15.5q16 -10 31.5 -24.5t23.5 -32.5q4 -16 -5 -24.5t-23 -2.5q-18 4 -33.5 19.5 t-32.5 15.5q-23 -4 -34 15.5z" />
<glyph unicode="&#xb4;" horiz-adv-x="749" d="M235.5 627q-2.5 6 10.5 14q86 55 165.5 114.5t153.5 118.5q10 8 22.5 5.5t20.5 -11t9 -20.5t-11 -23q-76 -59 -153.5 -106t-163.5 -94q-10 -6 -22.5 -7.5t-20.5 1t-10.5 8.5z" />
<glyph unicode="&#xc1;" horiz-adv-x="1183" d="M-467 580q0 35 21.5 56t50.5 38q39 12 83 17t89 4t90 -7t84 -14q115 -27 216 -76t200 -111q147 213 321 409t391 370q27 14 38 4t9 -27q-14 -182 -26.5 -344t-21.5 -317.5t-15 -312t-6 -328.5q0 -29 -19.5 -34t-40.5 11q-78 63 -148.5 129t-145 129.5t-155.5 124.5 t-177 117q-4 4 -36 -41t-77 -112.5l-95 -142.5t-89 -132q-2 -4 -11.5 -6t-17.5 -2t-13 4t1 14q25 41 63.5 102.5t82.5 126t85 123t70 92.5q-70 43 -129.5 76t-122 57.5t-131 40t-156.5 21.5q-25 2 -57.5 0t-63 -8t-54 -16.5t-30.5 -22.5q-8 -12 0.5 -29.5t23.5 -34t32.5 -31 t25.5 -22.5q8 -10 6 -23.5t-28 1.5q-16 8 -37 21t-38 29.5t-29.5 35t-12.5 41.5zM406 463q86 -55 168.5 -114.5t158.5 -120t141.5 -119t118.5 -109.5q2 68 6.5 162t10.5 200.5t13 221t14 224.5t15.5 207t16.5 171q-193 -156 -361.5 -337t-301.5 -386zM911.5 1383 q-2.5 6 10.5 14q86 55 165.5 114.5t153.5 118.5q10 8 22.5 5.5t20.5 -11t9 -20.5t-11 -23q-76 -59 -153.5 -106t-163.5 -94q-10 -6 -22.5 -7.5t-20.5 1t-10.5 8.5z" />
<glyph unicode="&#xc9;" horiz-adv-x="1966" d="M102 322q-6 49 37 95t144 83q72 27 162 56.5t180 51.5q147 37 290.5 75t290.5 85q-61 55 -135 98t-153.5 75t-161.5 55.5t-160 39.5q-12 6 -15 15.5t0 19.5t11 17.5t18 7.5q106 -12 222 -24.5t230 -23t218 -13.5t184 3q18 2 20.5 -5t-3.5 -16t-17.5 -17.5t-19.5 -8.5 q-145 0 -281.5 2t-283.5 13q102 -33 195 -95.5t192 -128.5q18 -12 16 -25.5t-29 -23.5q-113 -41 -247 -73.5t-271 -69.5t-269 -80t-243 -100q-53 -27 -47 -72q4 -27 40 -58.5t106 -54.5q98 -31 210.5 -49t243.5 -25.5t284.5 -3t336.5 22.5q98 8 188 21.5t180 34t181.5 52 t191.5 80.5q20 10 19.5 -4t-19.5 -24q-141 -76 -275 -124t-272.5 -76t-283 -39t-306.5 -13q-84 -2 -159.5 -1t-152.5 6t-157.5 17.5t-173.5 32.5q-117 27 -183 81t-73 108zM909.5 1145q-2.5 6 10.5 14q86 55 165.5 114.5t153.5 118.5q10 8 22.5 5.5t20.5 -11t9 -20.5 t-11 -23q-76 -59 -153.5 -106t-163.5 -94q-10 -6 -22.5 -7.5t-20.5 1t-10.5 8.5z" />
<glyph unicode="&#xcd;" horiz-adv-x="823" d="M88 348q0 18 16.5 20.5t16.5 -8.5q12 -57 37.5 -122.5t63.5 -113.5t88 -65.5t112 19.5q63 33 108 88t79 121.5t58.5 138.5t47.5 139q41 141 61.5 277.5t3.5 275.5q-6 57 -34.5 86t-68.5 42.5t-87 16.5t-90 9q-8 0 -13.5 8t-6.5 17.5t3 17.5t17 6q45 -4 99 -7t101.5 -17.5 t84.5 -47.5t49 -94q18 -152 -9.5 -326t-79.5 -352q-20 -68 -51.5 -147.5t-77 -150t-104.5 -123t-135 -66.5q-68 -14 -121 14.5t-90 82.5t-57.5 124t-20.5 137zM321.5 1346q-2.5 6 10.5 14q86 55 165.5 114.5t153.5 118.5q10 8 22.5 5.5t20.5 -11t9 -20.5t-11 -23 q-76 -59 -153.5 -106t-163.5 -94q-10 -6 -22.5 -7.5t-20.5 1t-10.5 8.5z" />
<glyph unicode="&#xd3;" d="M92 330q0 82 44 170t119 172t176 158.5t216 131t239 89t242 32.5q86 0 170 -19.5t162 -59.5q6 -6 6 -17q0 -16 -12 -16q-6 0 -8 4q-70 33 -143.5 47t-151.5 14q-86 0 -194.5 -24.5t-220 -70.5t-218 -109.5t-189.5 -142.5t-133.5 -170t-50.5 -189q0 -80 48.5 -132.5 t122 -83t160.5 -42t165 -11.5q45 0 137 9.5t203 33t227.5 63.5t213 102.5t157.5 148.5t61 203q0 92 -47 154.5t-119.5 101t-158.5 58t-162 26.5q-12 0 -12 12q0 16 27.5 16h45.5q63 0 133 -12t131.5 -39t111.5 -70t79 -104q16 -33 22.5 -65.5t6.5 -67.5q0 -125 -58.5 -220.5 t-150.5 -165t-203.5 -115.5t-218.5 -71q-106 -27 -217 -42t-227 -15q-35 0 -87.5 6t-111.5 20.5t-118.5 39t-106.5 61.5t-77 86t-30 115zM765.5 1172q-2.5 6 10.5 14q86 55 165.5 114.5t153.5 118.5q10 8 22.5 5.5t20.5 -11t9 -20.5t-11 -23q-76 -59 -153.5 -106t-163.5 -94 q-10 -6 -22.5 -7.5t-20.5 1t-10.5 8.5z" />
<glyph unicode="&#xd6;" d="M92 330q0 82 44 170t119 172t176 158.5t216 131t239 89t242 32.5q86 0 170 -19.5t162 -59.5q6 -6 6 -17q0 -16 -12 -16q-6 0 -8 4q-70 33 -143.5 47t-151.5 14q-86 0 -194.5 -24.5t-220 -70.5t-218 -109.5t-189.5 -142.5t-133.5 -170t-50.5 -189q0 -80 48.5 -132.5 t122 -83t160.5 -42t165 -11.5q45 0 137 9.5t203 33t227.5 63.5t213 102.5t157.5 148.5t61 203q0 92 -47 154.5t-119.5 101t-158.5 58t-162 26.5q-12 0 -12 12q0 16 27.5 16h45.5q63 0 133 -12t131.5 -39t111.5 -70t79 -104q16 -33 22.5 -65.5t6.5 -67.5q0 -125 -58.5 -220.5 t-150.5 -165t-203.5 -115.5t-218.5 -71q-106 -27 -217 -42t-227 -15q-35 0 -87.5 6t-111.5 20.5t-118.5 39t-106.5 61.5t-77 86t-30 115zM805 1226q0 15 9 27.5t28 12.5q8 0 14 -10q2 -4 2 -8q20 0 34.5 -6.5t18.5 -28.5q2 -12 -19 -27.5t-50 -7.5q-18 4 -27.5 18.5 t-9.5 29.5zM996 1248.5q-11 19.5 6 33.5q10 16 31.5 15.5t35.5 -15.5q16 -10 31.5 -24.5t23.5 -32.5q4 -16 -5 -24.5t-23 -2.5q-18 4 -33.5 19.5t-32.5 15.5q-23 -4 -34 15.5z" />
<glyph unicode="&#xda;" horiz-adv-x="1654" d="M103 261.5q1 62.5 14.5 122.5t25.5 105q33 100 79 201t100.5 194t116 175t122.5 147q12 14 20.5 12.5t11.5 -13t-1 -26t-14 -26.5q-111 -119 -213.5 -295t-167.5 -412q-14 -53 -23.5 -116.5t-1.5 -120.5t42 -100t105 -52q94 0 183.5 32t171.5 84t157.5 116.5t145.5 130.5 q170 170 306 371.5t265 427.5q4 8 14.5 11t19.5 1t14.5 -9.5t0.5 -15.5q-37 -84 -79.5 -167t-83.5 -167t-77 -170t-59 -174q-8 -35 -14 -78.5t-3 -85.5t21.5 -78t59.5 -57q45 -23 104.5 -15.5t122 30t118.5 55t95 61.5q10 6 20.5 -2t0.5 -16q-33 -37 -92.5 -75t-126 -65.5 t-132 -38.5t-110.5 1q-47 12 -76 36.5t-44 58.5t-17 75t2 86q8 53 18 98t22.5 87t29 84t38.5 91q-45 -63 -84 -119.5t-84 -109.5q-72 -90 -152.5 -176t-171.5 -158t-190.5 -125t-206.5 -78q-31 -8 -68.5 -11t-73.5 0t-68.5 15.5t-55.5 34.5q-45 35 -61.5 90.5t-15.5 118z M876.5 1254q-2.5 6 10.5 14q86 55 165.5 114.5t153.5 118.5q10 8 22.5 5.5t20.5 -11t9 -20.5t-11 -23q-76 -59 -153.5 -106t-163.5 -94q-10 -6 -22.5 -7.5t-20.5 1t-10.5 8.5z" />
<glyph unicode="&#xdc;" horiz-adv-x="1654" d="M103 261.5q1 62.5 14.5 122.5t25.5 105q33 100 79 201t100.5 194t116 175t122.5 147q12 14 20.5 12.5t11.5 -13t-1 -26t-14 -26.5q-111 -119 -213.5 -295t-167.5 -412q-14 -53 -23.5 -116.5t-1.5 -120.5t42 -100t105 -52q94 0 183.5 32t171.5 84t157.5 116.5t145.5 130.5 q170 170 306 371.5t265 427.5q4 8 14.5 11t19.5 1t14.5 -9.5t0.5 -15.5q-37 -84 -79.5 -167t-83.5 -167t-77 -170t-59 -174q-8 -35 -14 -78.5t-3 -85.5t21.5 -78t59.5 -57q45 -23 104.5 -15.5t122 30t118.5 55t95 61.5q10 6 20.5 -2t0.5 -16q-33 -37 -92.5 -75t-126 -65.5 t-132 -38.5t-110.5 1q-47 12 -76 36.5t-44 58.5t-17 75t2 86q8 53 18 98t22.5 87t29 84t38.5 91q-45 -63 -84 -119.5t-84 -109.5q-72 -90 -152.5 -176t-171.5 -158t-190.5 -125t-206.5 -78q-31 -8 -68.5 -11t-73.5 0t-68.5 15.5t-55.5 34.5q-45 35 -61.5 90.5t-15.5 118z M756 1369q0 15 9 27.5t28 12.5q8 0 14 -10q2 -4 2 -8q20 0 34.5 -6.5t18.5 -28.5q2 -12 -19 -27.5t-50 -7.5q-18 4 -27.5 18.5t-9.5 29.5zM947 1391.5q-11 19.5 6 33.5q10 16 31.5 15.5t35.5 -15.5q16 -10 31.5 -24.5t23.5 -32.5q4 -16 -5 -24.5t-23 -2.5q-18 4 -33.5 19.5 t-32.5 15.5q-23 -4 -34 15.5z" />
<glyph unicode="&#xe1;" horiz-adv-x="548" d="M43 178q2 37 27.5 81t66.5 86t95.5 74t115.5 44q72 14 119 1.5t84 -61.5q4 -8 0 -17t-13.5 -15t-20.5 -9.5t-17 3.5q-29 23 -69 32t-95 -4q-53 -12 -100.5 -44t-80 -67.5t-44 -65.5t9.5 -36q29 -10 67.5 -5t76.5 18.5t67.5 30t42.5 30.5q25 29 45 29t24 -13 q4 -29 7.5 -56.5t3.5 -49.5q0 -10 -16.5 -22.5t-32.5 5.5q-10 10 -14.5 26.5t-4.5 27.5q-12 -12 -44 -27.5t-73 -27t-84 -18.5t-75 -3q-29 4 -49.5 17.5t-18.5 35.5zM202.5 594q-2.5 6 10.5 14q86 55 165.5 114.5t153.5 118.5q10 8 22.5 5.5t20.5 -11t9 -20.5t-11 -23 q-76 -59 -153.5 -106t-163.5 -94q-10 -6 -22.5 -7.5t-20.5 1t-10.5 8.5z" />
<glyph unicode="&#xe9;" horiz-adv-x="786" d="M105 239.5q-3 57.5 19.5 112t64.5 94t98 46.5q37 2 59.5 -6.5t33.5 -21.5t11 -30.5t-6 -32.5q-10 -20 -31.5 -36.5t-49.5 -25.5t-59.5 -7t-60.5 20q-16 -31 -21 -63.5t9 -61.5q14 -33 42 -52t61.5 -29.5t70.5 -11.5t74 5q147 23 295.5 83t283.5 132q10 12 13.5 -5 t-13.5 -27q-117 -76 -235.5 -128.5t-200.5 -80.5q-43 -14 -100 -27.5t-115.5 -15.5t-112 12t-90.5 57t-40 100.5zM180.5 549q-2.5 6 10.5 14q86 55 165.5 114.5t153.5 118.5q10 8 22.5 5.5t20.5 -11t9 -20.5t-11 -23q-76 -59 -153.5 -106t-163.5 -94q-10 -6 -22.5 -7.5 t-20.5 1t-10.5 8.5zM207 389q29 -14 59.5 -13t40.5 21q16 23 2 40.5t-51 -7.5q-31 -16 -51 -41z" />
<glyph unicode="&#xed;" horiz-adv-x="552" d="M86 627q-2 6 10 14q86 55 166 114.5t154 118.5q10 8 22.5 5.5t20.5 -11t9 -20.5t-11 -23q-76 -59 -154 -106t-164 -94q-10 -6 -22.5 -7.5t-20.5 1t-10 8.5zM143 352q6 8 22.5 14.5t27.5 -14.5q37 -72 97 -117t129.5 -51t142.5 31t132 133q10 18 17.5 18.5t11.5 -10t4 -25 t-6 -22.5q-74 -111 -158 -153.5t-161.5 -36.5t-141 52t-98.5 112q-25 47 -19 69z" />
<glyph unicode="&#xf3;" horiz-adv-x="720" d="M137 303q6 33 18.5 55.5t22.5 24.5q25 0 19 -41q-6 -43 -2 -84t18 -74.5t38.5 -57.5t59.5 -32q4 33 -21.5 80t-72.5 94q-8 4 -9 14.5t3 20.5t10 17.5t12 7.5q145 -14 307 -14t328 51q16 6 21.5 -3.5t4.5 -21.5t-8 -23.5t-18 -13.5q-86 -18 -170 -26.5t-160.5 -10.5 t-142 0t-112.5 4q29 -29 60.5 -77t43.5 -97q8 -47 -27 -57q-53 -6 -99 12.5t-76.5 55t-45 88t-2.5 108.5zM172.5 627q-2.5 6 10.5 14q86 55 165.5 114.5t153.5 118.5q10 8 22.5 5.5t20.5 -11t9 -20.5t-11 -23q-76 -59 -153.5 -106t-163.5 -94q-10 -6 -22.5 -7.5t-20.5 1 t-10.5 8.5z" />
<glyph unicode="&#xf6;" horiz-adv-x="720" d="M137 303q6 33 18.5 55.5t22.5 24.5q25 0 19 -41q-6 -43 -2 -84t18 -74.5t38.5 -57.5t59.5 -32q4 33 -21.5 80t-72.5 94q-8 4 -9 14.5t3 20.5t10 17.5t12 7.5q145 -14 307 -14t328 51q16 6 21.5 -3.5t4.5 -21.5t-8 -23.5t-18 -13.5q-86 -18 -170 -26.5t-160.5 -10.5 t-142 0t-112.5 4q29 -29 60.5 -77t43.5 -97q8 -47 -27 -57q-53 -6 -99 12.5t-76.5 55t-45 88t-2.5 108.5zM203 726q0 15 9 27.5t28 12.5q8 0 14 -10q2 -4 2 -8q20 0 34.5 -6.5t18.5 -28.5q2 -12 -19 -27.5t-50 -7.5q-18 4 -27.5 18.5t-9.5 29.5zM394 748.5q-11 19.5 6 33.5 q10 16 31.5 15.5t35.5 -15.5q16 -10 31.5 -24.5t23.5 -32.5q4 -16 -5 -24.5t-23 -2.5q-18 4 -33.5 19.5t-32.5 15.5q-23 -4 -34 15.5z" />
<glyph unicode="&#xfa;" horiz-adv-x="759" d="M117 230.5q6 48.5 27.5 95.5t52.5 84q23 20 46 20t7 -22q-23 -31 -44.5 -78t-27.5 -93.5t9.5 -83t66.5 -49.5q53 -12 111.5 17t116 75t108.5 94t92 75q10 0 25.5 -9.5t9.5 -25.5q-8 -27 -7 -51.5t10 -43t29.5 -26.5t53.5 0q20 2 41.5 17.5t42 37t37 45t28.5 43.5 q14 14 33.5 11t11.5 -21q-23 -41 -51 -79t-60 -65.5t-62.5 -44t-55.5 -16.5q-39 0 -62.5 14.5t-36 38t-12.5 51t7 54.5q-47 -49 -109.5 -105.5t-130.5 -96.5t-135.5 -50t-124.5 31q-33 25 -43 66.5t-4 90zM337.5 627q-2.5 6 10.5 14q86 55 165.5 114.5t153.5 118.5 q10 8 22.5 5.5t20.5 -11t9 -20.5t-11 -23q-76 -59 -153.5 -106t-163.5 -94q-10 -6 -22.5 -7.5t-20.5 1t-10.5 8.5z" />
<glyph unicode="&#xfc;" horiz-adv-x="759" d="M117 230.5q6 48.5 27.5 95.5t52.5 84q23 20 46 20t7 -22q-23 -31 -44.5 -78t-27.5 -93.5t9.5 -83t66.5 -49.5q53 -12 111.5 17t116 75t108.5 94t92 75q10 0 25.5 -9.5t9.5 -25.5q-8 -27 -7 -51.5t10 -43t29.5 -26.5t53.5 0q20 2 41.5 17.5t42 37t37 45t28.5 43.5 q14 14 33.5 11t11.5 -21q-23 -41 -51 -79t-60 -65.5t-62.5 -44t-55.5 -16.5q-39 0 -62.5 14.5t-36 38t-12.5 51t7 54.5q-47 -49 -109.5 -105.5t-130.5 -96.5t-135.5 -50t-124.5 31q-33 25 -43 66.5t-4 90zM223 726q0 15 9 27.5t28 12.5q8 0 14 -10q2 -4 2 -8q20 0 34.5 -6.5 t18.5 -28.5q2 -12 -19 -27.5t-50 -7.5q-18 4 -27.5 18.5t-9.5 29.5zM414 748.5q-11 19.5 6 33.5q10 16 31.5 15.5t35.5 -15.5q16 -10 31.5 -24.5t23.5 -32.5q4 -16 -5 -24.5t-23 -2.5q-18 4 -33.5 19.5t-32.5 15.5q-23 -4 -34 15.5z" />
<glyph unicode="&#x2000;" horiz-adv-x="818" />
<glyph unicode="&#x2001;" horiz-adv-x="1636" />
<glyph unicode="&#x2002;" horiz-adv-x="818" />
<glyph unicode="&#x2003;" horiz-adv-x="1636" />
<glyph unicode="&#x2004;" horiz-adv-x="545" />
<glyph unicode="&#x2005;" horiz-adv-x="409" />
<glyph unicode="&#x2006;" horiz-adv-x="272" />
<glyph unicode="&#x2007;" horiz-adv-x="272" />
<glyph unicode="&#x2008;" horiz-adv-x="204" />
<glyph unicode="&#x2009;" horiz-adv-x="327" />
<glyph unicode="&#x200a;" horiz-adv-x="90" />
<glyph unicode="&#x202f;" horiz-adv-x="327" />
<glyph unicode="&#x205f;" horiz-adv-x="409" />
<glyph unicode="&#x25fc;" horiz-adv-x="368" d="M0 0v369h369v-369h-369z" />
</font>
</defs>
</svg>
